<svg xmlns="http://www.w3.org/2000/svg" xmlns:xlink="http://www.w3.org/1999/xlink" width="79.077" height="79.08" viewBox="0 0 79.077 79.08">
  <defs>
    <filter id="Path_105521" x="0" y="0" width="79.077" height="79.08" filterUnits="userSpaceOnUse">
      <feOffset dy="3" input="SourceAlpha"/>
      <feGaussianBlur stdDeviation="3" result="blur"/>
      <feFlood flood-opacity="0.239"/>
      <feComposite operator="in" in2="blur"/>
      <feComposite in="SourceGraphic"/>
    </filter>
  </defs>
  <g id="Component_28_1" data-name="Component 28 – 1" transform="translate(9 6)">
    <g id="Group_88444" data-name="Group 88444" transform="translate(-12036 -16516)">
      <g transform="matrix(1, 0, 0, 1, 12027, 16510)" filter="url(#Path_105521)">
        <path id="Path_105521-2" data-name="Path 105521" d="M30.539,0A30.54,30.54,0,1,1,0,30.54,30.539,30.539,0,0,1,30.539,0Z" transform="translate(9 6)" fill="#d20073"/>
      </g>
      <g id="Group_88443" data-name="Group 88443" transform="translate(-155.002 86.994)">
        <path id="Path_105522" data-name="Path 105522" d="M34,14.911V2.876A.907.907,0,0,1,34.876,2H46.035a.907.907,0,0,1,.876.876V14.035a.907.907,0,0,1-.876.876Z" transform="translate(12188.758 16444.006)" fill="#e4eaef"/>
        <path id="Path_105523" data-name="Path 105523" d="M34,14.911C42,14.182,45.986,9.854,46.035,2a.907.907,0,0,1,.876.876V14.035a.907.907,0,0,1-.876.876Z" transform="translate(12188.758 16444.006)" fill="#c6d1db"/>
        <path id="Path_105524" data-name="Path 105524" d="M34,34H46.035a.907.907,0,0,1,.876.876V46.035a.907.907,0,0,1-.876.876H34.876A.907.907,0,0,1,34,46.035Z" transform="translate(12188.758 16426.762)" fill="#e4eaef"/>
        <path id="Path_105525" data-name="Path 105525" d="M34,46.035C42.033,46.13,45.789,41.858,46.035,34a.907.907,0,0,1,.876.876V46.035a.907.907,0,0,1-.876.876H34.876A.907.907,0,0,1,34,46.035Z" transform="translate(12188.758 16426.762)" fill="#c6d1db"/>
        <path id="Path_105526" data-name="Path 105526" d="M14.911,34V46.035a.907.907,0,0,1-.876.876H2.876A.907.907,0,0,1,2,46.035V34.876A.907.907,0,0,1,2.876,34Z" transform="translate(12206.002 16426.762)" fill="#e4eaef"/>
        <path id="Path_105527" data-name="Path 105527" d="M14.911,34V46.035a.907.907,0,0,1-.876.876H2.876A.907.907,0,0,1,2,46.035C9.289,45.978,13.752,42.176,14.911,34Z" transform="translate(12206.002 16426.762)" fill="#c6d1db"/>
        <path id="phone-call" d="M13.5,10.3c-.035-.028-2.6-1.875-3.3-1.742-.336.059-.528.288-.913.747-.062.074-.211.251-.327.377a5.387,5.387,0,0,1-.711-.289,5.9,5.9,0,0,1-2.72-2.72,5.362,5.362,0,0,1-.289-.711c.127-.116.3-.265.38-.329.456-.383.686-.575.745-.912.122-.7-1.724-3.277-1.743-3.3A.985.985,0,0,0,3.883,1C3.136,1,1,3.77,1,4.237c0,.027.039,2.783,3.438,6.24,3.454,3.395,6.209,3.434,6.237,3.434.467,0,3.237-2.136,3.237-2.884A.983.983,0,0,0,13.5,10.3Z" transform="translate(12207.002 16445.006)" fill="#e4eaef"/>
      </g>
    </g>
  </g>
</svg>
