<svg xmlns="http://www.w3.org/2000/svg" width="22.825" height="22.827" viewBox="0 0 22.825 22.827">
  <g id="Group_88303" data-name="Group 88303" transform="translate(6275.25 18014.84)">
    <path id="Path_51269" data-name="Path 51269" d="M22.212,9.928l0,0L12.9.615a2.1,2.1,0,0,0-2.972,0L.62,9.922l-.009.01a2.1,2.1,0,0,0,1.4,3.58c.021,0,.043,0,.065,0h.371v6.853A2.462,2.462,0,0,0,4.9,22.826H8.547a.669.669,0,0,0,.669-.669V16.785a1.123,1.123,0,0,1,1.122-1.122h2.149a1.123,1.123,0,0,1,1.122,1.122v5.372a.669.669,0,0,0,.669.669h3.643a2.462,2.462,0,0,0,2.46-2.459V13.515h.344a2.1,2.1,0,0,0,1.487-3.587Zm0,0" transform="translate(-6275.25 -18014.84)" fill="#e22b2b"/>
    <path id="Path_51270" data-name="Path 51270" d="M266.772,9.928l0,0L257.459.615A2.087,2.087,0,0,0,255.973,0h0V15.663h1.075a1.123,1.123,0,0,1,1.122,1.122v5.372a.669.669,0,0,0,.669.669h3.643a2.462,2.462,0,0,0,2.46-2.459V13.515h.344a2.1,2.1,0,0,0,1.487-3.587Zm0,0" transform="translate(-6519.81 -18014.84)" fill="#f94141"/>
  </g>
</svg>
