<svg id="active" xmlns="http://www.w3.org/2000/svg" width="27.017" height="27.017" viewBox="0 0 27.017 27.017">
  <path id="Path_100591" data-name="Path 100591" d="M241.985,0A7.317,7.317,0,1,0,249.3,7.317,7.325,7.325,0,0,0,241.985,0Zm1.126,9.85a.844.844,0,0,1-1.689,0V6.191h-.563a.844.844,0,0,1,0-1.689h1.407a.845.845,0,0,1,.844.844Zm0,0" transform="translate(-222.285 0)" fill="#f44336"/>
  <path id="Path_100592" data-name="Path 100592" d="M137.006,345.835a4.5,4.5,0,1,1-4.5-4.5A4.5,4.5,0,0,1,137.006,345.835Zm0,0" transform="translate(-121.246 -323.321)" fill="#ffa000"/>
  <path id="Path_100593" data-name="Path 100593" d="M20.06,57.284c-.12,0-.239.018-.36.018a9.549,9.549,0,0,1-8.113-14.617c-.11,0-.218-.017-.33-.017a7.888,7.888,0,0,0-7.88,7.88v3.138A7.548,7.548,0,0,1,.689,59.464,1.97,1.97,0,0,0,1.97,62.93H20.544a1.97,1.97,0,0,0,1.27-3.476A7.551,7.551,0,0,1,20.06,57.284Zm0,0" transform="translate(0 -40.416)" fill="#ffc107"/>
</svg>
